<svg width="40" height="40" viewBox="0 0 40 40" fill="none" xmlns="http://www.w3.org/2000/svg">
<rect width="40" height="40" fill="#E40321"/>
<path d="M20.5028 14.0903C16.9557 14.0903 14.0945 16.9521 14.0945 20.5C14.0945 24.0479 16.9557 26.9097 20.5028 26.9097C24.0499 26.9097 26.911 24.0479 26.911 20.5C26.911 16.9521 24.0499 14.0903 20.5028 14.0903ZM20.5028 24.6671C18.2105 24.6671 16.3366 22.7983 16.3366 20.5C16.3366 18.2017 18.205 16.3329 20.5028 16.3329C22.8006 16.3329 24.669 18.2017 24.669 20.5C24.669 22.7983 22.795 24.6671 20.5028 24.6671V24.6671ZM28.6679 13.8281C28.6679 14.6593 27.9986 15.3232 27.1732 15.3232C26.3422 15.3232 25.6785 14.6537 25.6785 13.8281C25.6785 13.0025 26.3477 12.3331 27.1732 12.3331C27.9986 12.3331 28.6679 13.0025 28.6679 13.8281ZM32.9122 15.3455C32.8173 13.3428 32.36 11.5688 30.8932 10.1073C29.432 8.64571 27.6584 8.18827 25.6562 8.08786C23.5926 7.97071 17.4074 7.97071 15.3438 8.08786C13.3472 8.1827 11.5736 8.64013 10.1068 10.1017C8.63999 11.5633 8.18823 13.3372 8.08784 15.3399C7.97072 17.4039 7.97072 23.5905 8.08784 25.6545C8.18265 27.6572 8.63999 29.4312 10.1068 30.8927C11.5736 32.3543 13.3416 32.8117 15.3438 32.9121C17.4074 33.0293 23.5926 33.0293 25.6562 32.9121C27.6584 32.8173 29.432 32.3599 30.8932 30.8927C32.3544 29.4312 32.8118 27.6572 32.9122 25.6545C33.0293 23.5905 33.0293 17.4095 32.9122 15.3455V15.3455ZM30.2462 27.8692C29.8112 28.9626 28.969 29.8049 27.8703 30.2456C26.225 30.8983 22.321 30.7477 20.5028 30.7477C18.6846 30.7477 14.775 30.8927 13.1352 30.2456C12.0421 29.8105 11.1999 28.9681 10.7593 27.8692C10.1068 26.2235 10.2574 22.3186 10.2574 20.5C10.2574 18.6814 10.1124 14.7709 10.7593 13.1308C11.1944 12.0374 12.0365 11.1951 13.1352 10.7544C14.7805 10.1017 18.6846 10.2523 20.5028 10.2523C22.321 10.2523 26.2306 10.1073 27.8703 10.7544C28.9635 11.1895 29.8056 12.0319 30.2462 13.1308C30.8988 14.7765 30.7482 18.6814 30.7482 20.5C30.7482 22.3186 30.8988 26.2291 30.2462 27.8692Z" fill="white"/>
</svg>
