<svg width="40" height="40" viewBox="0 0 40 40" fill="none" xmlns="http://www.w3.org/2000/svg">
<rect width="40" height="40" fill="#E40321"/>
<path d="M30.3275 15.2336C30.344 15.4633 30.344 15.693 30.344 15.9227C30.344 22.9281 24.9823 31 15.1828 31C12.1637 31 9.35915 30.1304 7 28.6211C7.42895 28.6703 7.84135 28.6867 8.2868 28.6867C10.7779 28.6867 13.0711 27.85 14.9023 26.4227C12.5597 26.3734 10.5964 24.8477 9.92003 22.7477C10.25 22.7968 10.5799 22.8297 10.9264 22.8297C11.4048 22.8297 11.8833 22.764 12.3287 22.6492C9.88708 22.157 8.0558 20.0242 8.0558 17.4484V17.3828C8.76516 17.7766 9.59011 18.0227 10.4644 18.0554C9.02913 17.1039 8.08881 15.4797 8.08881 13.6422C8.08881 12.6578 8.35272 11.7554 8.81468 10.9679C11.4378 14.1836 15.3807 16.2835 19.802 16.5133C19.7195 16.1195 19.67 15.7094 19.67 15.2992C19.67 12.3789 22.0457 10 24.9987 10C26.533 10 27.9188 10.6398 28.8921 11.6734C30.0964 11.4438 31.2512 11.0008 32.2741 10.3938C31.8781 11.6242 31.0368 12.6578 29.9315 13.314C31.0038 13.1993 32.0432 12.9039 33 12.4938C32.2742 13.5437 31.3668 14.4788 30.3275 15.2336V15.2336Z" fill="white"/>
</svg>
